<svg width="27" height="26" viewBox="0 0 27 26" fill="none" xmlns="http://www.w3.org/2000/svg">
<path d="M26.9375 13C26.9375 14.38 25.7335 15.5 24.25 15.5H2.75C1.2665 15.5 0.0625 14.38 0.0625 13C0.0625 11.62 1.2665 10.5 2.75 10.5H24.25C25.7335 10.5 26.9375 11.62 26.9375 13Z" fill="white"/>
<path d="M26.9375 3C26.9375 4.38 25.7335 5.5 24.25 5.5H2.75C1.2665 5.5 0.0625 4.38 0.0625 3C0.0625 1.62 1.2665 0.5 2.75 0.5H24.25C25.7335 0.5 26.9375 1.62 26.9375 3Z" fill="white"/>
<path d="M26.9375 23C26.9375 24.38 25.7335 25.5 24.25 25.5H2.75C1.2665 25.5 0.0625 24.38 0.0625 23C0.0625 21.62 1.2665 20.5 2.75 20.5H24.25C25.7335 20.5 26.9375 21.62 26.9375 23Z" fill="white"/>
</svg>
