<svg width="20" height="20" viewBox="0 0 20 20" fill="none" xmlns="http://www.w3.org/2000/svg">
<g clip-path="url(#clip0_135_16)">
<path d="M13.3865 10.0002L19.2984 4.08874C20.2339 3.1533 20.2339 1.63687 19.2984 0.701918C18.364 -0.233037 16.8466 -0.233037 15.9121 0.701918L10.0001 6.61436L4.08816 0.701918C3.15368 -0.233037 1.6363 -0.233037 0.70182 0.701918C-0.233614 1.63735 -0.233614 3.15378 0.70182 4.08874L6.61331 10.0002L0.70182 15.9117C-0.233614 16.8471 -0.233614 18.3636 0.70182 19.2985C1.16882 19.7665 1.78238 19.9997 2.39499 19.9997C3.00712 19.9997 3.62116 19.7665 4.08816 19.2985L10.0001 13.387L15.9121 19.299C16.3796 19.767 16.9927 20.0002 17.6053 20.0002C18.2179 20.0002 18.8314 19.767 19.2984 19.299C20.2339 18.3636 20.2339 16.8471 19.2984 15.9122L13.3865 10.0002Z" fill="white"/>
</g>
<defs>
<clipPath id="clip0_135_16">
<rect width="20" height="20" fill="white"/>
</clipPath>
</defs>
</svg>
