<svg width="50" height="50" viewBox="0 0 50 50" fill="none" xmlns="http://www.w3.org/2000/svg">
<path d="M41.3757 5.00294C40.8887 5.02431 40.4146 5.15986 39.987 5.33107C39.5639 5.50113 37.1276 6.54095 33.53 8.07911C29.9324 9.61727 25.2557 11.6203 20.6199 13.6065C11.3481 17.5788 2.23705 21.4873 2.23705 21.4873L2.30345 21.4619C2.30345 21.4619 1.75355 21.6457 1.19603 22.0342C0.91727 22.2284 0.617368 22.4792 0.371812 22.8447C0.126257 23.2103 -0.0532609 23.7284 0.0143906 24.2764C0.252013 26.2011 2.24681 26.7471 2.24681 26.7471L2.25462 26.751L11.157 29.7979C11.3839 30.555 13.8571 38.8095 14.4011 40.5576C14.7016 41.5241 14.9828 42.0816 15.2761 42.4619C15.4229 42.6522 15.5767 42.7995 15.7468 42.9072C15.8144 42.95 15.8855 42.9821 15.9558 43.0108C15.9573 43.0114 15.9582 43.0101 15.9597 43.0108C15.9683 43.0146 15.9765 43.0149 15.9851 43.0186L15.9617 43.0127C15.978 43.0193 15.9941 43.0304 16.0105 43.0361C16.0422 43.0473 16.0617 43.0469 16.1023 43.0557C17.1218 43.4117 17.9656 42.751 17.9656 42.751L18.0007 42.7236L23.4695 37.6514L32.3445 44.5713L32.4558 44.6221C34.0092 45.3118 35.4141 44.927 36.1921 44.294C36.9701 43.6609 37.2761 42.8447 37.2761 42.8447L37.3093 42.7588L43.8308 8.76857C43.9977 8.00813 44.0214 7.35082 43.864 6.75685C43.7066 6.16288 43.3243 5.64655 42.8445 5.36036C42.3647 5.07418 41.8628 4.98157 41.3757 5.00294ZM41.4285 7.03615C41.6263 7.02698 41.7729 7.0496 41.8191 7.07716C41.8653 7.10472 41.886 7.1011 41.9304 7.26857C41.9748 7.43604 41.9988 7.78877 41.8777 8.34083L41.8738 8.35255L35.3894 42.1455C35.374 42.1795 35.2389 42.4921 34.9304 42.7432C34.6157 42.9993 34.2656 43.1992 33.3367 42.8096L23.6316 35.2412L23.3581 35.0264L23.3523 35.0322L20.4499 32.8545L36.7605 13.6651C36.8858 13.518 36.9659 13.3378 36.9909 13.1462C37.016 12.9546 36.985 12.7598 36.9018 12.5854C36.8185 12.4111 36.6865 12.2646 36.5218 12.1636C36.357 12.0627 36.1665 12.0116 35.9734 12.0166C35.7846 12.0215 35.6011 12.0798 35.4441 12.1846L11.8425 27.919L2.9265 24.8662C2.9265 24.8662 2.04114 24.3735 1.99877 24.0303C1.99642 24.0113 1.98596 24.0285 2.03197 23.96C2.07798 23.8915 2.19362 23.7758 2.33861 23.6748C2.62859 23.4728 2.9597 23.3506 2.9597 23.3506L2.99291 23.3389L3.02611 23.3252C3.02611 23.3252 12.1377 19.4165 21.4089 15.4443C26.0446 13.4583 30.7204 11.4567 34.3171 9.91896C37.9129 8.38158 40.5112 7.27498 40.7312 7.18654C40.9817 7.08624 41.2306 7.04531 41.4285 7.03615ZM30.612 17.8096L18.2429 32.3623L18.237 32.3682C18.2177 32.3914 18.1995 32.4155 18.1824 32.4404C18.1627 32.4675 18.1445 32.4955 18.1277 32.5244C18.0582 32.6424 18.0136 32.7733 17.9968 32.9092C17.9968 32.9118 17.9968 32.9144 17.9968 32.917L16.3855 40.1631C16.3587 40.0848 16.3399 40.0562 16.3113 39.9639V39.9619C15.7995 38.3175 13.4661 30.5327 13.1433 29.4561L30.612 17.8096ZM19.6394 34.7471L21.862 36.4151L18.5964 39.4424L19.6394 34.7471Z" fill="white"/>
</svg>
