<svg width="340" height="64" viewBox="0 0 340 64" fill="none" xmlns="http://www.w3.org/2000/svg">
<path d="M123.739 57.1764H125.032V51.3074H123.327L121.926 54.8011L120.529 51.3074H118.825V57.1764H120.117V53.2754L121.486 56.4006H122.371L123.739 53.2623L123.739 57.1764Z" fill="#F9F7F7"/>
<path d="M140.504 57.1764L138.671 51.3074H136.659L134.822 57.1764H136.323L136.678 55.9238H138.648L139.003 57.1764H140.504ZM137.663 52.287L138.416 54.9138H136.915L137.663 52.287Z" fill="#F9F7F7"/>
<path d="M152.983 51.3074L151.884 53.6568H151.198V51.3074H149.792V57.1764H151.198V54.7621H151.828L153.049 57.1764H154.583L153.016 54.2766L154.508 51.3074H152.983Z" fill="#F9F7F7"/>
<path d="M163.196 57.1764H167.249V56.0885H164.607V54.7361H167.055V53.7174H164.607V52.3954H167.149V51.3074H163.196V57.1764Z" fill="#F9F7F7"/>
<path d="M188.605 57.1764L186.772 51.3074H184.76L182.923 57.1764H184.424L184.779 55.9238H186.748L187.104 57.1764H188.605ZM185.764 52.287L186.516 54.9138H185.016L185.764 52.287Z" fill="#F9F7F7"/>
<path d="M197.865 57.1764H200.157C201.587 57.1764 202.591 56.5869 202.591 55.2866V53.232C202.591 52.0357 201.587 51.3074 200.157 51.3074H197.865V57.1764ZM201.18 55.2692C201.18 55.8284 200.81 56.1622 200.095 56.1622H199.271V52.3217H200.095C200.905 52.3217 201.18 52.8896 201.18 53.4531V55.2692Z" fill="#F9F7F7"/>
<path d="M212.046 57.1764H214.337C215.767 57.1764 216.771 56.5869 216.771 55.2866V53.232C216.771 52.0357 215.767 51.3074 214.337 51.3074H212.046V57.1764ZM215.36 55.2692C215.36 55.8284 214.991 56.1622 214.276 56.1622H213.452V52.3217H214.276C215.085 52.3217 215.36 52.8896 215.36 53.4531V55.2692Z" fill="#F9F7F7"/>
<path d="M226.273 51.3074H224.867V57.1764H226.273V51.3074Z" fill="#F9F7F7"/>
<path d="M238.132 55.525C238.132 54.5584 237.668 54.1119 236.711 53.8388L236.001 53.6351C235.49 53.4877 235.305 53.3144 235.305 52.9459C235.305 52.5385 235.688 52.3217 236.309 52.3217C236.844 52.3217 237.384 52.4344 237.72 52.5211L237.885 51.4418C237.611 51.3681 237.014 51.2208 236.129 51.2208C234.732 51.2208 233.955 51.9836 233.955 52.9979C233.955 53.7998 234.296 54.2853 234.997 54.5237C236.171 54.9225 236.749 54.9398 236.749 55.538C236.749 56.0408 236.304 56.1578 235.646 56.1578C235.016 56.1578 234.41 56.0148 234.079 55.9238L233.894 56.9857C234.268 57.1071 234.988 57.2631 235.883 57.2631C237.431 57.2631 238.132 56.6303 238.132 55.525H238.132Z" fill="#F9F7F7"/>
<path d="M255.3 57.1764H256.711V52.3781H258.368V51.3074H253.638V52.3781H255.3V57.1764Z" fill="#F9F7F7"/>
<path d="M267.266 51.3074V57.1764H268.672V55.2909H269.468L270.453 57.1764H271.972L270.779 55.0655C271.414 54.8098 271.864 54.294 271.864 53.5007V53.1236C271.864 51.9316 270.902 51.3075 269.577 51.3075L267.266 51.3074ZM269.534 52.3217C270.097 52.3217 270.462 52.5991 270.462 53.115V53.5137C270.462 54.0339 270.097 54.3156 269.534 54.3156H268.672V52.3217H269.534Z" fill="#F9F7F7"/>
<path d="M281.299 57.1764H285.352V56.0885H282.71V54.7361H285.158V53.7174H282.71V52.3954H285.253V51.3074H281.299V57.1764Z" fill="#F9F7F7"/>
<path d="M297.895 57.1764H299.297V51.3074H297.924V55.0395L295.713 51.3074H294.311V57.1764H295.684V53.4444L297.895 57.1764Z" fill="#F9F7F7"/>
<path d="M309.22 57.1764H311.512C312.942 57.1764 313.945 56.5869 313.945 55.2866V53.232C313.945 52.0357 312.942 51.3074 311.512 51.3074H309.22V57.1764ZM312.535 55.2692C312.535 55.8284 312.165 56.1622 311.45 56.1622H310.626V52.3217H311.45C312.26 52.3217 312.535 52.8896 312.535 53.4531V55.2692Z" fill="#F9F7F7"/>
<path d="M326.508 51.3074L325.367 53.8302L324.221 51.3074H322.777L324.661 55.0829V57.1764H326.068V55.0829L327.957 51.3074H326.508Z" fill="#F9F7F7"/>
<path d="M336.825 51.3074H335.286L335.485 55.4166H336.626L336.825 51.3074ZM335.314 56.6216C335.314 57.0508 335.584 57.2631 336.058 57.2631C336.531 57.2631 336.796 57.0508 336.796 56.6216C336.796 56.1882 336.531 55.9758 336.058 55.9758C335.579 55.9758 335.314 56.1882 335.314 56.6216Z" fill="#F9F7F7"/>
<path d="M122.122 30.6336C121.987 24.7214 125.058 13.6413 125.645 11.6154C128.942 12.3596 133.368 13.3932 136.484 12.1529C138.02 11.5741 139.103 9.79629 139.826 8.43194C128.445 11.9462 119.91 5.20711 111.555 7.72909C103.425 10.2097 104.825 20.1736 112.774 21.4553C115.98 21.9514 118.013 19.14 117.471 19.14C108.709 18.9746 105.413 12.4837 109.838 9.50689C112.638 7.60506 116.793 9.30016 121.264 10.6645C120.181 12.8971 116.974 23.4811 116.703 28.4837C116.206 37.6621 121.355 40.3908 129.71 36.215C129.71 36.0497 129.8 34.768 129.755 34.768C125.645 36.4631 122.258 37.7034 122.122 30.6336V30.6336Z" fill="#F9F7F7"/>
<path d="M150.349 34.6853C139.916 39.8947 138.065 33.197 141.497 20.0083C141.768 19.0574 137.252 17.817 136.574 17.6517C135.987 21.9101 131.245 22.737 134.316 14.923L130.342 12.8558C128.174 17.0729 129.484 20.5044 131.878 21.7034C131.697 24.6388 130.387 28.7318 128.807 31.8326C129.032 32.2874 129.258 32.7422 129.439 33.197C131.832 29.3106 133.187 24.1427 133.368 22.1168C134.045 22.1581 134.723 22.0755 135.445 21.7861C132.826 34.1892 138.245 42.3753 150.755 35.5949L150.349 34.6853Z" fill="#F9F7F7"/>
<path d="M164.891 32.0806C164.755 32.1633 161.865 34.0651 161.73 34.1478C155.858 37.7034 152.697 37.3727 152.697 31.1297C167.962 20.7524 161.594 14.3441 154.187 17.4862C142.897 22.2821 144.884 46.427 162.317 35.0161C162.452 34.9334 165.252 33.0316 165.388 32.9489L164.891 32.0806ZM152.833 29.3933C153.465 23.6878 157.71 20.5043 159.155 20.7937C160.33 21.0418 159.471 23.7292 152.833 29.3933V29.3933Z" fill="#F9F7F7"/>
<path d="M188.782 34.0237C178.349 39.2331 176.498 32.5767 179.93 19.388C180.02 18.9332 177.401 17.9823 176.227 18.0237C174.104 18.065 169.768 28.649 168.143 32.9901C168.549 28.2356 170.13 21.7033 171.078 19.6361C171.259 19.1399 170.22 18.4371 166.156 17.2381C164.123 23.233 163.401 32.5767 164.665 36.6284C165.026 37.8687 168.188 38.4475 168.459 37.7447C170.581 31.8739 171.936 27.6154 173.698 25.0108C173.698 25.755 172.117 44.153 189.188 34.9333L188.782 34.0237Z" fill="#F9F7F7"/>
<path d="M195.375 20.3803C199.756 18.7679 197.408 35.7602 192.304 33.4863C189.82 32.37 191.266 21.8687 195.375 20.3803ZM212.989 34.0238C203.73 38.6543 201.201 33.8997 203.143 23.5638C204.046 18.8919 205.717 14.0133 206.892 9.9203C207.027 9.38283 206.395 7.93579 202.33 6.73682C201.156 9.50685 199.621 14.2614 198.582 18.6852C198.537 18.6439 198.492 18.5612 198.446 18.5198C196.866 16.618 194.291 16.5767 191.898 17.693C184.04 21.3726 183.678 37.414 190.046 37.9928C193.795 38.3649 196.595 35.8429 198.311 32.4114C200.298 37.4967 205.401 39.2745 213.395 34.9334L212.989 34.0238Z" fill="#F9F7F7"/>
<path d="M225.769 20.1323C225.814 19.7189 220.44 17.9411 220.44 18.4785C220.169 24.3494 217.73 33.8585 216.014 34.2719C214.343 34.6853 214.208 26.4166 216.466 18.9333C216.601 18.4372 215.608 17.7344 211.543 16.5767C206.169 35.2642 214.479 46.3857 219.401 31.4605C218.995 34.3546 218.318 37.9102 217.64 40.1841C205.266 42.9955 212.446 52.5459 218.498 47.9981C224.143 43.7396 225.408 26.5406 225.769 20.1323V20.1323ZM217.234 41.5484C215.563 46.5924 213.259 47.1712 212.582 46.2203C211.95 45.2694 212.808 42.8301 217.234 41.5484Z" fill="#F9F7F7"/>
<path d="M263.48 28.7731C264.022 29.1038 264.609 29.3932 265.151 29.7653C267.86 26.4992 264.473 25.1762 263.66 24.9281C264.292 18.3131 266.415 10.0443 266.415 10.0443C266.641 9.05206 263.841 6.44739 262.26 6.81948C259.505 7.43964 256.073 15.8324 252.234 23.6878C232.227 24.2666 236.698 37.662 242.389 37.9928C248.26 38.2822 251.331 32.0806 254.357 25.631C256.073 25.7963 257.247 26.1271 258.376 26.5819C257.338 35.4708 260.228 42.2512 271.157 36.7525C271.157 36.5871 271.157 35.3881 271.112 35.4294C264.112 38.2822 263.48 33.8997 263.48 28.7731V28.7731ZM251.512 25.3415C247.041 35.2641 241.124 34.8506 239.589 32.1633C238.189 29.6826 240.582 25.2589 251.512 25.3415ZM255.079 23.6878C256.479 19.8428 261.131 11.2019 261.131 11.2019C260.454 14.3027 259.28 20.0495 258.692 23.9772C258.692 23.9772 256.344 23.6878 255.079 23.6878H255.079Z" fill="#F9F7F7"/>
<path d="M279.603 20.3803C283.983 18.7679 281.635 35.7602 276.532 33.4863C274.048 32.37 275.493 21.8687 279.603 20.3803ZM297.216 34.0238C287.958 38.6543 285.428 33.8997 287.37 23.5638C288.274 18.8919 289.945 14.0133 291.119 9.9203C291.254 9.38283 290.622 7.93579 286.557 6.73682C285.383 9.50685 283.848 14.2614 282.809 18.6852C282.764 18.6439 282.719 18.5612 282.674 18.5198C281.093 16.618 278.519 16.5767 276.125 17.693C268.267 21.3726 267.906 37.414 274.273 37.9928C278.022 38.3649 280.822 35.8429 282.538 32.4114C284.525 37.4967 289.629 39.2745 297.622 34.9334L297.216 34.0238Z" fill="#F9F7F7"/>
<path d="M303.809 20.3803C308.19 18.7679 305.842 35.7602 300.738 33.4863C298.254 32.37 299.7 21.8687 303.809 20.3803ZM321.423 34.0238C312.164 38.6543 309.635 33.8997 311.577 23.5638C312.48 18.8919 314.151 14.0133 315.326 9.9203C315.461 9.38283 314.829 7.93579 310.764 6.73682C309.59 9.50685 308.055 14.2614 307.016 18.6852C306.971 18.6439 306.926 18.5612 306.88 18.5198C305.3 16.618 302.725 16.5767 300.332 17.693C292.474 21.3726 292.112 37.414 298.48 37.9928C302.229 38.3649 305.029 35.8429 306.745 32.4114C308.732 37.4967 313.835 39.2745 321.829 34.9334L321.423 34.0238Z" fill="#F9F7F7"/>
<path d="M333.842 34.6853C323.41 39.8946 321.558 33.1969 324.945 20.0082C325.081 19.5121 324.132 18.8093 320.023 17.6516C315.19 32.246 320.339 43.0781 334.249 35.5949L333.842 34.6853ZM325.668 18.1477C326.21 16.37 327.113 13.848 327.61 12.0702C327.745 11.5327 327.113 10.0857 323.048 8.88672C323.048 8.88672 319.074 16.5353 325.668 18.1477V18.1477Z" fill="#F9F7F7"/>
<path d="M330.139 27.9462C331.087 35.14 335.107 46.4682 325.713 40.5147L324.765 41.3002C334.836 47.9566 337.907 42.9127 336.507 32.5353C336.507 32.3286 340.978 25.0934 339.803 20.1735C339.307 18.189 336.958 17.2381 334.971 16.99C329.461 16.2872 329.642 24.1012 330.139 27.9462V27.9462ZM336.145 30.7575C335.016 23.6877 336.823 20.2562 337.862 20.587C338.81 20.835 339.171 24.1839 336.145 30.7575Z" fill="#F9F7F7"/>
<path d="M22.0853 64V7.56366C25.0248 6.54547 28.1231 5.89093 31.4597 5.8182V1.1308e-05C17.3982 0.436376 5.40217 8.21819 0 19.3455H7.07049C9.21547 15.9273 12.2343 12.9455 15.7298 10.6909V61.6C17.7159 62.6182 19.8609 63.4182 22.0853 64V64ZM35.6881 1.1308e-05V64C37.7878 63.9288 39.8874 63.7152 41.9093 63.2881V44.2803L63.2946 33.0322C62.9058 41.0767 58.6287 48.1958 52.1743 52.8231L56.6068 56.881C64.4611 50.9722 69.5158 42.0022 69.5158 32.0356C69.5158 16.6585 57.6955 3.77308 41.9093 0.711898C39.8874 0.284759 37.7878 0.0711885 35.6881 0V1.1308e-05ZM62.6725 26.6963L41.9093 37.7308V6.54951C52.4075 9.11235 60.4951 16.8721 62.6725 26.6963V26.6963Z" fill="#F9F7F7"/>
<path d="M84.1475 64V0H85.2613V64H84.1475Z" fill="#F9F7F7"/>
</svg>
