<svg width="265" height="154" viewBox="0 0 265 154" fill="none" xmlns="http://www.w3.org/2000/svg">
<path d="M82.4607 153.162H83.9252V147.23H81.994L80.4062 150.761L78.8237 147.23H76.8925V153.162H78.357V149.219L79.9073 152.378H80.9104L82.4607 149.206L82.4607 153.162Z" fill="#170D0D"/>
<path d="M94.3037 153.162L92.2277 147.23H89.9479L87.8665 153.162H89.567L89.9693 151.896H92.2009L92.6032 153.162H94.3037ZM91.0851 148.22L91.938 150.875H90.2375L91.0851 148.22Z" fill="#170D0D"/>
<path d="M101.842 147.23L100.597 149.604H99.8192V147.23H98.226V153.162H99.8192V150.722H100.533L101.917 153.162H103.655L101.879 150.231L103.569 147.23H101.842Z" fill="#170D0D"/>
<path d="M107.489 153.162H112.081V152.063H109.087V150.695H111.861V149.666H109.087V148.329H111.968V147.23H107.489V153.162Z" fill="#170D0D"/>
<path d="M143.915 153.162L141.839 147.23H139.559L137.477 153.162H139.178L139.58 151.896H141.812L142.214 153.162H143.915ZM140.696 148.22L141.549 150.875H139.849L140.696 148.22Z" fill="#170D0D"/>
<path d="M147.834 153.162H150.43C152.05 153.162 153.187 152.566 153.187 151.252V149.175C153.187 147.966 152.05 147.23 150.43 147.23H147.834V153.162ZM151.589 151.234C151.589 151.8 151.17 152.137 150.36 152.137H149.427V148.255H150.36C151.278 148.255 151.589 148.829 151.589 149.398V151.234Z" fill="#170D0D"/>
<path d="M157.455 153.162H160.052C161.672 153.162 162.809 152.566 162.809 151.252V149.175C162.809 147.966 161.672 147.23 160.052 147.23H157.455V153.162ZM161.21 151.234C161.21 151.8 160.792 152.137 159.982 152.137H159.048V148.255H159.982C160.899 148.255 161.21 148.829 161.21 149.398V151.234Z" fill="#170D0D"/>
<path d="M168.502 147.23H166.909V153.162H168.502V147.23Z" fill="#170D0D"/>
<path d="M177.192 151.493C177.192 150.516 176.666 150.065 175.583 149.788L174.778 149.583C174.199 149.434 173.989 149.258 173.989 148.886C173.989 148.474 174.424 148.255 175.127 148.255C175.733 148.255 176.344 148.369 176.725 148.456L176.913 147.365C176.602 147.291 175.926 147.142 174.923 147.142C173.34 147.142 172.461 147.913 172.461 148.938C172.461 149.749 172.847 150.24 173.641 150.481C174.971 150.884 175.625 150.901 175.625 151.506C175.625 152.014 175.121 152.133 174.376 152.133C173.662 152.133 172.975 151.988 172.6 151.896L172.391 152.97C172.815 153.092 173.63 153.25 174.644 153.25C176.398 153.25 177.192 152.61 177.192 151.493H177.192Z" fill="#170D0D"/>
<path d="M187.558 153.162H189.157V148.312H191.034V147.23H185.676V148.312H187.558V153.162Z" fill="#170D0D"/>
<path d="M194.928 147.23V153.162H196.521V151.256H197.422L198.538 153.162H200.26L198.908 151.028C199.627 150.77 200.137 150.249 200.137 149.447V149.065C200.137 147.86 199.048 147.23 197.546 147.23L194.928 147.23ZM197.497 148.255C198.136 148.255 198.549 148.535 198.549 149.057V149.46C198.549 149.986 198.136 150.27 197.497 150.27H196.521V148.255H197.497Z" fill="#170D0D"/>
<path d="M204.598 153.162H209.19V152.063H206.197V150.695H208.97V149.666H206.197V148.329H209.077V147.23H204.598V153.162Z" fill="#170D0D"/>
<path d="M217.276 153.162H218.864V147.23H217.308V151.002L214.803 147.23H213.215V153.162H214.771V149.39L217.276 153.162Z" fill="#170D0D"/>
<path d="M223.39 153.162H225.987C227.607 153.162 228.744 152.566 228.744 151.252V149.175C228.744 147.966 227.607 147.23 225.987 147.23H223.39V153.162ZM227.145 151.234C227.145 151.8 226.727 152.137 225.917 152.137H224.983V148.255H225.917C226.834 148.255 227.145 148.829 227.145 149.398V151.234Z" fill="#170D0D"/>
<path d="M236.713 147.23L235.42 149.78L234.122 147.23H232.486L234.621 151.046V153.162H236.214V151.046L238.354 147.23H236.713Z" fill="#170D0D"/>
<path d="M243.544 147.23H241.8L242.026 151.383H243.318L243.544 147.23ZM241.833 152.601C241.833 153.035 242.138 153.25 242.675 153.25C243.211 153.25 243.512 153.035 243.512 152.601C243.512 152.163 243.211 151.949 242.675 151.949C242.133 151.949 241.833 152.163 241.833 152.601Z" fill="#170D0D"/>
<path d="M18.1578 133.978C18.0043 128.002 21.4836 116.801 22.1488 114.753C25.8839 115.506 30.8981 116.55 34.4286 115.297C36.1682 114.711 37.3962 112.914 38.2149 111.535C25.3211 115.088 15.6507 108.275 6.18502 110.825C-3.02483 113.332 -1.4387 123.405 7.5665 124.7C11.1993 125.202 13.5017 122.36 12.8878 122.36C2.96157 122.193 -0.773538 115.631 4.24072 112.622C7.41301 110.699 12.1203 112.413 17.1857 113.792C15.9577 116.049 12.3249 126.748 12.0179 131.805C11.4551 141.083 17.288 143.842 26.7537 139.62C26.7537 139.453 26.856 138.158 26.8049 138.158C22.1488 139.871 18.3113 141.125 18.1578 133.978V133.978Z" fill="#170D0D"/>
<path d="M50.1365 138.074C38.3172 143.34 36.2194 136.569 40.108 123.237C40.415 122.276 35.2984 121.022 34.5309 120.855C33.8658 125.16 28.4934 125.996 31.9726 118.097L27.47 116.007C25.0141 120.27 26.4979 123.739 29.2097 124.951C29.005 127.918 27.5212 132.056 25.7304 135.19C25.9862 135.65 26.2421 136.11 26.4467 136.569C29.1585 132.641 30.6935 127.417 30.8982 125.369C31.6656 125.411 32.4331 125.327 33.2518 125.034C30.2842 137.573 36.4241 145.848 50.597 138.993L50.1365 138.074Z" fill="#170D0D"/>
<path d="M66.6119 135.441C66.4584 135.525 63.1838 137.447 63.0303 137.531C56.3787 141.125 52.7971 140.791 52.7971 134.48C70.0912 123.99 62.8768 117.512 54.4856 120.688C41.6941 125.536 43.9454 149.943 63.6955 138.408C63.849 138.325 67.0212 136.402 67.1747 136.319L66.6119 135.441ZM52.9506 132.724C53.6669 126.957 58.4765 123.739 60.1139 124.031C61.4442 124.282 60.472 126.999 52.9506 132.724Z" fill="#170D0D"/>
<path d="M93.6787 137.405C81.8594 142.671 79.7616 135.943 83.6502 122.61C83.7525 122.151 80.7849 121.189 79.4546 121.231C77.0498 121.273 72.1378 131.972 70.2959 136.36C70.7564 131.554 72.5472 124.951 73.6216 122.861C73.8263 122.36 72.6495 121.649 68.0446 120.437C65.7421 126.497 64.9234 135.943 66.3561 140.038C66.7654 141.292 70.347 141.877 70.654 141.167C73.0588 135.232 74.5938 130.927 76.5893 128.294C76.5893 129.047 74.7985 147.645 94.1392 138.325L93.6787 137.405Z" fill="#170D0D"/>
<path d="M101.149 123.613C106.112 121.984 103.451 139.161 97.6696 136.862C94.8555 135.734 96.4928 125.118 101.149 123.613ZM121.104 137.405C110.615 142.086 107.749 137.28 109.949 126.832C110.973 122.109 112.866 117.177 114.196 113.04C114.35 112.496 113.633 111.034 109.028 109.822C107.698 112.622 105.958 117.428 104.782 121.9C104.731 121.858 104.679 121.775 104.628 121.733C102.837 119.81 99.9209 119.769 97.2091 120.897C88.3063 124.617 87.8969 140.832 95.1113 141.418C99.3581 141.794 102.53 139.244 104.475 135.775C106.726 140.916 112.508 142.713 121.564 138.325L121.104 137.405Z" fill="#170D0D"/>
<path d="M135.584 123.363C135.635 122.945 129.546 121.148 129.546 121.691C129.239 127.626 126.476 137.238 124.532 137.656C122.639 138.074 122.485 129.715 125.043 122.151C125.197 121.649 124.071 120.939 119.466 119.769C113.378 138.659 122.792 149.902 128.369 134.814C127.909 137.74 127.141 141.334 126.374 143.633C112.354 146.475 120.49 156.129 127.346 151.532C133.742 147.227 135.174 129.841 135.584 123.363V123.363ZM125.913 145.012C124.02 150.111 121.411 150.696 120.643 149.734C119.927 148.773 120.899 146.307 125.913 145.012Z" fill="#170D0D"/>
<path d="M178.307 132.098C178.921 132.432 179.586 132.725 180.2 133.101C183.27 129.799 179.433 128.462 178.512 128.211C179.228 121.524 181.633 113.165 181.633 113.165C181.889 112.162 178.716 109.529 176.926 109.905C173.804 110.532 169.916 119.016 165.567 126.957C142.9 127.542 147.966 141.083 154.413 141.418C161.064 141.71 164.543 135.441 167.972 128.921C169.916 129.088 171.246 129.423 172.525 129.883C171.348 138.868 174.623 145.722 187.005 140.164C187.005 139.997 187.005 138.785 186.954 138.826C179.023 141.71 178.307 137.28 178.307 132.098V132.098ZM164.748 128.629C159.683 138.659 152.98 138.241 151.24 135.525C149.654 133.017 152.366 128.545 164.748 128.629ZM168.79 126.957C170.376 123.07 175.646 114.335 175.646 114.335C174.879 117.47 173.549 123.279 172.883 127.25C172.883 127.25 170.223 126.957 168.79 126.957Z" fill="#170D0D"/>
<path d="M196.573 123.613C201.536 121.984 198.876 139.161 193.094 136.862C190.28 135.734 191.917 125.118 196.573 123.613ZM216.528 137.405C206.039 142.086 203.174 137.28 205.374 126.832C206.397 122.109 208.29 117.177 209.621 113.04C209.774 112.496 209.058 111.034 204.453 109.822C203.122 112.622 201.383 117.428 200.206 121.9C200.155 121.858 200.104 121.775 200.053 121.733C198.262 119.81 195.345 119.769 192.633 120.897C183.731 124.617 183.321 140.832 190.536 141.418C194.782 141.794 197.955 139.244 199.899 135.775C202.15 140.916 207.932 142.713 216.988 138.325L216.528 137.405Z" fill="#170D0D"/>
<path d="M223.998 123.613C228.961 121.984 226.301 139.161 220.519 136.862C217.705 135.734 219.342 125.118 223.998 123.613ZM243.953 137.405C233.464 142.086 230.599 137.28 232.799 126.832C233.822 122.109 235.715 117.177 237.045 113.04C237.199 112.496 236.483 111.034 231.878 109.822C230.547 112.622 228.808 117.428 227.631 121.9C227.58 121.858 227.529 121.775 227.477 121.733C225.687 119.81 222.77 119.769 220.058 120.897C211.156 124.617 210.746 140.832 217.961 141.418C222.207 141.794 225.38 139.244 227.324 135.775C229.575 140.916 235.357 142.713 244.413 138.325L243.953 137.405Z" fill="#170D0D"/>
<path d="M258.024 138.074C246.204 143.34 244.106 136.569 247.944 123.237C248.097 122.736 247.023 122.025 242.367 120.855C236.892 135.608 242.725 146.558 258.484 138.993L258.024 138.074ZM248.762 121.357C249.376 119.56 250.4 117.01 250.963 115.213C251.116 114.67 250.4 113.207 245.795 111.995C245.795 111.995 241.292 119.727 248.762 121.357Z" fill="#170D0D"/>
<path d="M253.828 131.262C254.902 138.534 259.456 149.985 248.814 143.967L247.739 144.761C259.149 151.49 262.628 146.391 261.042 135.901C261.042 135.692 266.108 128.378 264.777 123.405C264.215 121.398 261.554 120.437 259.303 120.186C253.06 119.476 253.265 127.375 253.828 131.262V131.262ZM260.633 134.104C259.354 126.957 261.4 123.488 262.577 123.822C263.652 124.073 264.061 127.458 260.633 134.104Z" fill="#170D0D"/>
<path d="M112.55 89.8973V10.6242C117.178 9.19404 122.055 8.27465 127.308 8.17249V4.87169e-06C105.171 0.612941 86.2865 11.5436 77.782 27.1735H88.9128C92.2896 22.3722 97.042 18.1838 102.545 15.0169V86.5262C105.672 87.9563 109.048 89.0801 112.55 89.8973V89.8973ZM133.964 4.87169e-06V89.8973C137.27 89.7973 140.575 89.4973 143.758 88.8973V62.1981L177.424 46.3986C176.812 57.6983 170.079 67.698 159.918 74.1978L166.896 79.8976C179.261 71.5978 187.218 58.9982 187.218 44.9986C187.218 23.3993 168.61 5.29985 143.758 0.999977C140.575 0.39999 137.27 0.100002 133.964 0V4.87169e-06ZM176.445 37.4989L143.758 52.9984V9.19973C160.285 12.7996 173.017 23.6993 176.445 37.4989V37.4989Z" fill="#170D0D"/>
</svg>
