<svg width="271" height="168" viewBox="0 0 271 168" fill="none" xmlns="http://www.w3.org/2000/svg">
<path d="M84.3277 167.154H85.8253V160.68H83.8505L82.2267 164.534L80.6084 160.68H78.6335V167.154H80.1311V162.851L81.7165 166.298H82.7423L84.3277 162.836L84.3277 167.154Z" fill="white"/>
<path d="M96.4389 167.154L94.3159 160.68H91.9844L89.8559 167.154H91.5949L92.0064 165.772H94.2884L94.6999 167.154H96.4389ZM93.1474 161.76L94.0196 164.658H92.2806L93.1474 161.76Z" fill="white"/>
<path d="M104.147 160.68L102.875 163.271H102.079V160.68H100.45V167.154H102.079V164.491H102.809L104.224 167.154H106.002L104.186 163.955L105.914 160.68H104.147Z" fill="white"/>
<path d="M109.923 167.154H114.618V165.954H111.557V164.462H114.394V163.338H111.557V161.88H114.503V160.68H109.923V167.154Z" fill="white"/>
<path d="M147.173 167.154L145.05 160.68H142.719L140.59 167.154H142.329L142.741 165.772H145.023L145.434 167.154H147.173ZM143.882 161.76L144.754 164.658H143.015L143.882 161.76Z" fill="white"/>
<path d="M151.181 167.154H153.836C155.493 167.154 156.656 166.504 156.656 165.069V162.803C156.656 161.483 155.493 160.68 153.836 160.68H151.181V167.154ZM155.021 165.05C155.021 165.667 154.593 166.035 153.765 166.035H152.81V161.798H153.765C154.703 161.798 155.021 162.425 155.021 163.047V165.05Z" fill="white"/>
<path d="M161.02 167.154H163.675C165.332 167.154 166.495 166.504 166.495 165.069V162.803C166.495 161.483 165.332 160.68 163.675 160.68H161.02V167.154ZM164.86 165.05C164.86 165.667 164.432 166.035 163.604 166.035H162.65V161.798H163.604C164.542 161.798 164.86 162.425 164.86 163.047V165.05Z" fill="white"/>
<path d="M172.317 160.68H170.688V167.154H172.317V160.68Z" fill="white"/>
<path d="M181.204 165.332C181.204 164.266 180.666 163.774 179.558 163.472L178.735 163.248C178.143 163.085 177.929 162.894 177.929 162.487C177.929 162.038 178.373 161.799 179.092 161.799C179.712 161.799 180.337 161.923 180.726 162.019L180.918 160.828C180.6 160.747 179.909 160.584 178.883 160.584C177.265 160.584 176.365 161.426 176.365 162.545C176.365 163.429 176.76 163.965 177.572 164.228C178.933 164.668 179.602 164.687 179.602 165.347C179.602 165.901 179.086 166.031 178.324 166.031C177.594 166.031 176.892 165.873 176.508 165.772L176.294 166.944C176.727 167.078 177.561 167.25 178.598 167.25C180.392 167.25 181.204 166.552 181.204 165.332H181.204Z" fill="white"/>
<path d="M191.805 167.154H193.44V161.861H195.36V160.68H189.879V161.861H191.805V167.154Z" fill="white"/>
<path d="M199.341 160.68V167.154H200.97V165.074H201.892L203.033 167.154H204.794L203.412 164.825C204.147 164.543 204.668 163.974 204.668 163.099V162.683C204.668 161.368 203.554 160.68 202.018 160.68L199.341 160.68ZM201.969 161.799C202.622 161.799 203.044 162.105 203.044 162.674V163.114C203.044 163.687 202.622 163.998 201.969 163.998H200.97V161.799H201.969Z" fill="white"/>
<path d="M209.231 167.154H213.926V165.954H210.865V164.462H213.701V163.338H210.865V161.88H213.811V160.68H209.231V167.154Z" fill="white"/>
<path d="M222.195 167.154H223.819V160.68H222.228V164.797L219.666 160.68H218.043V167.154H219.633V163.037L222.195 167.154Z" fill="white"/>
<path d="M228.448 167.154H231.103C232.76 167.154 233.923 166.504 233.923 165.069V162.803C233.923 161.483 232.76 160.68 231.103 160.68H228.448V167.154ZM232.288 165.05C232.288 165.667 231.86 166.035 231.032 166.035H230.077V161.798H231.032C231.97 161.798 232.288 162.425 232.288 163.047V165.05Z" fill="white"/>
<path d="M242.072 160.68L240.75 163.463L239.423 160.68H237.749L239.933 164.845V167.154H241.562V164.845L243.751 160.68H242.072Z" fill="white"/>
<path d="M249.058 160.68H247.275L247.505 165.213H248.828L249.058 160.68ZM247.308 166.542C247.308 167.016 247.621 167.25 248.169 167.25C248.718 167.25 249.025 167.016 249.025 166.542C249.025 166.064 248.718 165.83 248.169 165.83C247.615 165.83 247.308 166.064 247.308 166.542Z" fill="white"/>
<path d="M18.569 146.218C18.412 139.695 21.97 127.471 22.6503 125.236C26.4699 126.057 31.5977 127.198 35.2081 125.829C36.9871 125.191 38.2429 123.23 39.0801 121.724C25.8944 125.601 16.0051 118.167 6.32506 120.949C-3.09332 123.686 -1.47127 134.678 7.73782 136.092C11.4528 136.639 13.8074 133.538 13.1795 133.538C3.02863 133.355 -0.791053 126.194 4.33673 122.91C7.58085 120.812 12.3947 122.682 17.5748 124.187C16.319 126.65 12.604 138.327 12.29 143.846C11.7145 153.972 17.6794 156.982 27.3594 152.375C27.3594 152.193 27.4641 150.779 27.4118 150.779C22.6503 152.649 18.7259 154.017 18.569 146.218V146.218Z" fill="white"/>
<path d="M51.2717 150.688C39.1848 156.435 37.0395 149.046 41.0161 134.496C41.3301 133.447 36.0976 132.078 35.3128 131.896C34.6326 136.594 29.1385 137.506 32.6965 128.885L28.092 126.605C25.5804 131.257 27.0978 135.043 29.871 136.366C29.6617 139.604 28.1443 144.12 26.313 147.54C26.5746 148.042 26.8362 148.544 27.0455 149.046C29.8187 144.758 31.3884 139.057 31.5977 136.822C32.3826 136.867 33.1675 136.776 34.0047 136.457C30.9698 150.14 37.2488 159.171 51.7426 151.691L51.2717 150.688Z" fill="white"/>
<path d="M68.1201 147.814C67.9632 147.905 64.6144 150.003 64.4574 150.095C57.6553 154.017 53.9925 153.652 53.9925 146.765C71.6782 135.317 64.3004 128.247 55.7192 131.713C42.6382 137.004 44.9404 163.641 65.1376 151.053C65.2946 150.961 68.5387 148.863 68.6957 148.772L68.1201 147.814ZM54.1495 144.849C54.8821 138.555 59.8005 135.043 61.4749 135.362C62.8354 135.636 61.8412 138.601 54.1495 144.849Z" fill="white"/>
<path d="M95.7997 149.958C83.7128 155.705 81.5675 148.361 85.5441 133.811C85.6488 133.31 82.614 132.261 81.2535 132.306C78.7943 132.352 73.7712 144.028 71.8875 148.818C72.3584 143.572 74.1897 136.366 75.2886 134.085C75.4979 133.538 74.2944 132.762 69.5852 131.44C67.2306 138.053 66.3934 148.361 67.8585 152.831C68.2771 154.2 71.9398 154.838 72.2537 154.063C74.713 147.586 76.2827 142.888 78.3234 140.015C78.3234 140.836 76.492 161.133 96.2706 150.961L95.7997 149.958Z" fill="white"/>
<path d="M103.439 134.906C108.515 133.127 105.794 151.874 99.881 149.365C97.0032 148.133 98.6775 136.548 103.439 134.906ZM123.846 149.958C113.119 155.066 110.189 149.821 112.439 138.418C113.485 133.264 115.421 127.882 116.782 123.366C116.939 122.773 116.206 121.177 111.497 119.854C110.137 122.91 108.358 128.156 107.154 133.036C107.102 132.99 107.049 132.899 106.997 132.854C105.166 130.755 102.183 130.71 99.4101 131.941C90.3057 136.001 89.8871 153.698 97.2648 154.337C101.608 154.747 104.852 151.965 106.84 148.179C109.142 153.789 115.055 155.751 124.316 150.961L123.846 149.958Z" fill="white"/>
<path d="M138.653 134.632C138.706 134.176 132.479 132.215 132.479 132.808C132.165 139.285 129.34 149.775 127.351 150.232C125.415 150.688 125.258 141.565 127.875 133.31C128.031 132.762 126.88 131.987 122.171 130.71C115.945 151.326 125.572 163.596 131.276 147.13C130.805 150.323 130.02 154.245 129.235 156.754C114.898 159.856 123.218 170.392 130.229 165.375C136.77 160.677 138.235 141.702 138.653 134.632V134.632ZM128.764 158.259C126.828 163.824 124.159 164.462 123.375 163.413C122.642 162.364 123.636 159.673 128.764 158.259Z" fill="white"/>
<path d="M182.344 144.165C182.972 144.53 183.652 144.849 184.28 145.26C187.42 141.657 183.495 140.197 182.553 139.923C183.286 132.626 185.745 123.503 185.745 123.503C186.007 122.409 182.763 119.535 180.931 119.946C177.74 120.63 173.763 129.889 169.315 138.555C146.136 139.194 151.316 153.972 157.909 154.337C164.711 154.656 168.269 147.814 171.775 140.699C173.763 140.881 175.123 141.246 176.432 141.748C175.228 151.554 178.577 159.035 191.239 152.968C191.239 152.786 191.239 151.463 191.187 151.509C183.077 154.656 182.344 149.821 182.344 144.165V144.165ZM168.478 140.379C163.298 151.326 156.444 150.87 154.665 147.905C153.043 145.169 155.816 140.288 168.478 140.379ZM172.612 138.555C174.234 134.313 179.623 124.78 179.623 124.78C178.838 128.201 177.478 134.541 176.798 138.874C176.798 138.874 174.077 138.555 172.612 138.555Z" fill="white"/>
<path d="M201.024 134.906C206.099 133.127 203.379 151.874 197.466 149.365C194.588 148.133 196.262 136.548 201.024 134.906ZM221.43 149.958C210.704 155.066 207.774 149.821 210.024 138.418C211.07 133.264 213.006 127.882 214.367 123.366C214.524 122.773 213.791 121.177 209.082 119.854C207.721 122.91 205.942 128.156 204.739 133.036C204.687 132.99 204.634 132.899 204.582 132.854C202.751 130.755 199.768 130.71 196.995 131.941C187.891 136.001 187.472 153.698 194.85 154.337C199.193 154.747 202.437 151.965 204.425 148.179C206.727 153.789 212.64 155.751 221.901 150.961L221.43 149.958Z" fill="white"/>
<path d="M229.07 134.906C234.145 133.127 231.424 151.874 225.512 149.365C222.634 148.133 224.308 136.548 229.07 134.906ZM249.476 149.958C238.75 155.066 235.82 149.821 238.07 138.418C239.116 133.264 241.052 127.882 242.413 123.366C242.57 122.773 241.837 121.177 237.128 119.854C235.767 122.91 233.988 128.156 232.785 133.036C232.733 132.99 232.68 132.899 232.628 132.854C230.797 130.755 227.814 130.71 225.041 131.941C215.936 136.001 215.518 153.698 222.896 154.337C227.238 154.747 230.483 151.965 232.471 148.179C234.773 153.789 240.686 155.751 249.947 150.961L249.476 149.958Z" fill="white"/>
<path d="M263.866 150.688C251.779 156.435 249.633 149.046 253.558 134.496C253.715 133.948 252.616 133.173 247.854 131.896C242.256 147.997 248.221 159.947 264.336 151.691L263.866 150.688ZM254.395 132.443C255.023 130.482 256.069 127.699 256.645 125.738C256.802 125.145 256.069 123.549 251.36 122.226C251.36 122.226 246.755 130.664 254.395 132.443Z" fill="white"/>
<path d="M259.575 143.253C260.674 151.189 265.331 163.687 254.447 157.119L253.348 157.985C265.017 165.329 268.575 159.764 266.953 148.316C266.953 148.088 272.133 140.106 270.772 134.678C270.197 132.489 267.476 131.44 265.174 131.166C258.79 130.391 258.999 139.011 259.575 143.253V143.253ZM266.534 146.355C265.226 138.555 267.319 134.769 268.522 135.134C269.621 135.408 270.04 139.102 266.534 146.355Z" fill="white"/>
<path d="M115.098 98.1098V11.5948C119.831 10.034 124.819 9.03057 130.19 8.91908V5.31673e-06C107.553 0.668936 88.2401 12.5982 79.5431 29.6559H90.9259C94.3791 24.416 99.2392 19.8449 104.867 16.3888V94.4307C108.064 95.9915 111.517 97.2179 115.098 98.1098V98.1098ZM136.998 5.31673e-06V98.1098C140.378 98.0006 143.758 97.6732 147.013 97.0184V67.8802L181.441 50.6373C180.815 62.9692 173.93 73.8824 163.539 80.976L170.675 87.1966C183.319 78.1386 191.457 64.3879 191.457 49.1095C191.457 25.5369 172.427 5.78401 147.013 1.09133C143.758 0.436531 140.378 0.109138 136.998 0V5.31673e-06ZM180.44 40.9245L147.013 57.84V10.0402C163.914 13.9689 176.934 25.8643 180.44 40.9245V40.9245Z" fill="white"/>
</svg>
